<svg aria-hidden="true" aria-label="" color="#cacaca" role="img" transform="" version="1.1" viewBox="0 0 24 24"
  xmlns="http://www.w3.org/2000/svg" class="sc-bRBYWo ciDhsx">
  <path
    d="M1.393 4.222l1.415-1.414 18.384 18.384-1.414 1.415-3.496-3.497c-1.33.547-2.773.89-4.282.89-6.627 0-12-6.625-12-8 0-.752 1.607-3.074 4.147-5.024L1.393 4.222zM12 4c6.627 0 12 6.625 12 8 0 .752-1.607 3.074-4.147 5.024l-3.198-3.196a5 5 0 0 0-6.483-6.483L7.718 4.89C9.048 4.343 10.49 4 12 4zm-4.656 6.173a5 5 0 0 0 6.483 6.483l-1.661-1.66L12 15a3 3 0 0 1-3-3l.005-.166-1.66-1.66zM12 9a3 3 0 0 1 3 3l-.005.166-3.162-3.161L12 9z"
    class="sc-Rmtcm cUjquv"></path>
</svg>